<svg viewBox="0 0 345 233" fill="none" xmlns="http://www.w3.org/2000/svg">
<path d="M19.0526 126.528C62.8152 79.9772 61.5999 49.8244 75.3145 26.2685C97.3712 -11.6027 160.194 3.30008 166.809 47.6344C170.75 74.0213 155.442 102.358 174.637 160.126C179.011 172.651 7.01183 139.321 19.0526 126.528Z" fill="#33312D"/>
<path d="M177.5 199C186.27 154.576 153.192 108.008 104.837 98.5844C56.4826 89.1611 10.1784 117.566 1.40872 161.99C-2.17511 180.524 8.43569 213.5 10.718 216C13.0002 218.5 36.0002 221 38.5002 221C41.0002 221 82.0004 223 82.0004 223L127.5 221C127.5 221 176.097 206.081 177.5 199Z" fill="#33312D"/>
<path d="M198.326 191.885C182.485 191.617 166.697 188.986 155.03 180.237C146.333 173.743 141.651 135.15 141.838 135.15C142.025 135.15 136.004 113.358 114.276 118.028C92.5474 122.698 98.3811 143.712 98.3811 143.712C98.3811 143.712 100.602 176.453 104.563 190.033C108.523 203.612 117.3 213.838 148.34 215.824C175.474 217.568 180.933 205.867 198.594 202.566L198.326 191.885Z" fill="url(#paint0_linear)"/>
<path d="M68.3685 55.056C68.3685 78.6881 82.0237 98.7754 101.119 106.483L101.765 106.697C107.012 108.731 112.591 109.779 118.221 109.786C119.94 109.783 121.657 109.684 123.365 109.49C125.543 109.225 127.702 108.821 129.829 108.282C132.85 107.5 135.784 106.412 138.582 105.032C147.316 100.491 154.671 93.6998 159.881 85.3641C165.092 77.0285 167.967 67.453 168.208 57.6339C168.208 56.7746 168.208 55.9153 168.208 54.9485C168.25 45.2663 165.881 35.7251 161.313 27.1809C161.298 27.11 161.298 27.0368 161.313 26.9659L160.425 25.4353C160.425 25.4353 160.425 25.4352 160.425 25.3009C160.39 25.215 160.345 25.1339 160.29 25.0593C158.64 22.2696 156.737 19.636 154.607 17.1911V17.1911C150.048 11.7215 144.298 7.36074 137.795 4.44106C131.291 1.52139 124.205 0.119691 117.076 0.342391C109.947 0.565091 102.963 2.40654 96.6556 5.72642C90.348 9.04631 84.8832 13.7572 80.6769 19.5006C77.9921 22.9473 75.7232 26.6967 73.9168 30.6718C73.5936 31.3969 73.2977 32.1222 72.9745 32.8741C71.6581 36.1696 70.6393 39.5759 69.9308 43.0521C69.7423 43.9114 69.5539 44.8245 69.4192 45.7375C69.132 47.7606 68.9165 49.8013 68.7729 51.8601V52.0483C68.3958 53.0419 68.3685 54.0355 68.3685 55.056Z" fill="#33312D"/>
<path d="M130.831 202.722C127.319 181.526 131.314 175.857 135.873 166.132C140.431 156.407 143.916 155.869 143.139 138.971C142.683 128.225 135.765 110.037 124.933 101.602C123.756 100.642 122.529 99.7457 121.259 98.9152C113.626 94.0363 104.76 91.4439 95.7061 91.4439C86.6521 91.4439 77.7871 94.0363 70.1539 98.9152C68.8789 99.7392 67.6521 100.636 66.4802 101.602C55.755 110.037 47.9527 129.73 42.6706 167.422C40.6984 183.2 39.6525 215.102 40.0002 231C40.0002 231 133.576 231.266 134 231C134.424 230.734 131.589 206.894 130.831 202.722Z" fill="url(#paint1_radial)"/>
<path d="M69.4536 100.56C79.6735 104.489 90.5177 106.513 101.457 106.532C108.601 106.595 115.599 104.495 121.544 100.506C114.028 95.6898 103.561 86.1127 95.772 83.7735C90.0054 90.1581 74.6463 97.6431 69.4536 100.56Z" fill="#BF8F67"/>
<path d="M128.056 69.8806C128.056 66.0916 126.515 62.4578 123.773 59.7785C121.032 57.0992 117.313 55.5939 113.435 55.5939C106.233 55.5939 99.1393 58.7687 97.9209 65.4622C94.8613 74.9073 86.9282 91.7337 78.2369 95.861C77.0456 96.6282 86.6572 101.867 91.585 103.031C98.8683 104.777 110.213 105.967 111.323 98.8771L123.236 80.9129C123.236 80.9129 128.056 74.246 128.056 69.8806Z" fill="url(#paint2_linear)"/>
<path d="M145.027 82.0613L147.327 82.5496C152.422 83.6311 157.86 78.5503 159.415 71.2425C160.97 63.9346 158.121 57.0792 152.98 55.9879L150.68 55.4995L145.027 82.0613Z" fill="#AEB9C1"/>
<path d="M145.549 82.4913C150.338 83.508 155.488 78.3864 157.049 71.0515C158.61 63.7167 155.991 56.9463 151.202 55.9295C146.412 54.9128 141.265 60.0346 139.703 67.3694C138.142 74.7043 140.759 81.4746 145.549 82.4913Z" fill="#C9CFD6"/>
<path d="M97.2687 46.6201L108.334 50.2494L102.724 67.311L91.6586 63.6818C89.3932 62.9388 87.5159 61.3274 86.44 59.2022C85.3642 57.077 85.1777 54.6121 85.9217 52.3496V52.3496C86.6656 50.0871 88.2791 48.2122 90.407 47.1377C92.535 46.0633 95.0034 45.8771 97.2687 46.6201Z" fill="#BF8F68"/>
<path d="M98.2605 46.8708C91.2081 68.6348 98.1281 90.4795 113.718 95.6652C129.307 100.851 147.654 87.4432 154.706 65.6792C161.758 43.9152 154.176 24.0857 138.586 18.8999C122.997 13.7142 105.286 25.1337 98.2605 46.8708Z" fill="#BF8F67"/>
<path d="M121.018 55.1585C121.804 52.6432 121.225 50.2259 119.726 49.7585C118.226 49.2911 116.373 50.9506 115.587 53.4659C114.801 55.9812 115.38 58.3993 116.88 58.8667C118.38 59.3341 120.232 57.6738 121.018 55.1585Z" fill="#3A312E"/>
<path d="M135.279 39.2809L132.196 51.1757C131.121 56.0108 131.805 61.08 134.12 65.4382C134.601 66.5279 134.7 67.753 134.403 68.9089C134.106 70.0647 133.429 71.0818 132.486 71.7895C131.353 72.5161 126.978 73.5385 126.082 76.2834L122.947 87.1824L144.397 94.556L158.759 46.3585L135.279 39.2809Z" fill="url(#paint3_radial)"/>
<path d="M114.19 76.3972C117.418 79.7678 121.728 81.9454 126.397 82.5649C128.988 82.5649 127.66 86.5072 122.22 86.5072C111.762 86.5072 110.499 73.1225 114.19 76.3972Z" fill="#9B643D"/>
<path d="M153.015 20.1953C150.2 24.5713 146.392 28.207 141.906 30.8005C137.419 33.394 132.385 34.8707 127.22 35.108C100.705 37.0192 96.8106 51.2588 96.8106 51.2588C96.8106 51.2588 88.9417 30.5318 111.749 14.1118C135.143 -2.79274 153.015 20.1953 153.015 20.1953Z" fill="#33312D"/>
<path d="M91.0285 69.978H93.3805C98.5889 69.978 102.85 63.8792 102.85 56.3928C102.85 48.9064 98.6362 42.8228 93.3805 42.8228H91.0285V69.978Z" fill="#C9CFD6"/>
<path d="M91.0281 69.978C96.2515 69.978 100.485 63.8992 100.485 56.4005C100.485 48.9017 96.2515 42.8228 91.0281 42.8228C85.8047 42.8228 81.5707 48.9017 81.5707 56.4005C81.5707 63.8992 85.8047 69.978 91.0281 69.978Z" fill="#AEB9C1"/>
<path d="M142.018 8.95663C102.989 0.35928 94.3813 31.6741 92.0556 42.2322C91.2804 45.7515 96.2482 49.1337 97.3646 44.0658C99.3415 35.0915 109.177 1.75923 142.01 8.99186" fill="#AEB9C1"/>
<path d="M144.157 62.88C145.017 60.3893 144.511 57.9552 143.026 57.4433C141.541 56.9314 139.639 58.5356 138.778 61.0263C137.918 63.5171 138.424 65.9513 139.909 66.4632C141.394 66.9751 143.296 65.3708 144.157 62.88Z" fill="#3A312E"/>
<path d="M237.973 176.415C240.445 178.124 239.647 179.273 239.647 179.273C239.647 179.273 245.467 179.861 245.254 181.036C245.068 183.414 237.282 184.349 230.905 184.483C223.943 185.07 218.815 185.926 217.062 188.277C214.165 192.097 204.839 198.027 200.879 195.756C200.215 195.382 190.756 201.099 186.027 201.847C179.703 202.809 179.729 192.444 185.548 188.811C191.367 185.178 214.59 174.064 220.303 172.782C224.98 171.927 236.512 175.373 237.973 176.415Z" fill="#9E765C"/>
<path d="M199.588 224L323.488 224C326.434 224 328.822 221.586 328.822 218.608V218.554C328.822 215.576 326.434 213.162 323.488 213.162L199.588 213.162C196.643 213.162 194.255 215.576 194.255 218.554V218.608C194.255 221.586 196.643 224 199.588 224Z" fill="#C2C9D1"/>
<path d="M183.158 202.83C189.901 202.644 196.649 202.959 203.348 203.772C212.584 205.352 228.479 208.9 228.962 206.544C229.365 205.463 223.592 202.248 223.592 202.248C223.592 202.248 228.64 203.8 228.962 202.552C229.284 201.305 219.968 196.122 217.444 193.406C220.505 193.406 228.854 193.821 228.747 191.576C228.747 189.969 217.74 189.553 210.464 188.056C184.098 187.114 175.345 189.221 169.116 190.468C162.888 191.715 154.323 201.804 160.686 203.467C165.358 204.881 182.541 202.109 183.158 202.83Z" fill="#BF8F67"/>
<path d="M96.1576 180.385C89.6622 175.524 87.1394 153.998 86.3342 143.384C86.4421 142.57 86.4961 141.748 86.4954 140.926C86.4956 135.894 84.5223 131.066 81.0041 127.491C77.4859 123.915 72.7072 121.882 67.707 121.832L67.519 121.67L67.3309 121.832C62.6547 121.847 58.149 123.601 54.6806 126.757C51.2122 129.913 49.026 134.247 48.5425 138.928C48.5425 138.928 47.7109 172.553 51.6833 186.219C55.6557 199.885 65.7209 211.796 91.2731 215.172C126.166 219.79 180 203.5 180 203.5L181.003 188.006C181.003 188.006 121.924 199.615 96.1576 180.385Z" fill="#D83B01"/>
<path d="M236.578 213.162L256.829 152.839C257.189 151.781 257.875 150.861 258.791 150.211C259.707 149.561 260.805 149.213 261.931 149.216H338.638C339.489 149.215 340.328 149.415 341.085 149.799C341.843 150.183 342.499 150.739 342.997 151.424C343.495 152.108 343.822 152.901 343.952 153.735C344.081 154.569 344.009 155.422 343.74 156.223L324.591 213.162" fill="url(#paint4_linear)"/>
<path d="M248.019 147.865L240.72 143.706C240.314 143.468 240.02 143.091 239.897 142.654C239.774 142.217 239.83 141.752 240.056 141.353C240.177 141.162 240.338 140.997 240.527 140.865C240.717 140.734 240.933 140.641 241.161 140.59C241.39 140.539 241.626 140.532 241.858 140.569C242.089 140.606 242.311 140.687 242.509 140.806L249.808 144.965C250.208 145.208 250.498 145.584 250.621 146.019C250.743 146.455 250.69 146.918 250.471 147.318C250.362 147.458 250.235 147.586 250.096 147.701C249.82 147.947 249.465 148.097 249.088 148.127C248.711 148.157 248.333 148.064 248.019 147.865Z" fill="#FFE399"/>
<path d="M260.464 138.341C260.082 138.432 259.684 138.352 259.352 138.114C259.02 137.877 258.779 137.502 258.679 137.066L257.246 130.689C257.197 130.475 257.185 130.251 257.212 130.032C257.239 129.813 257.304 129.602 257.402 129.413C257.501 129.223 257.631 129.058 257.786 128.928C257.941 128.797 258.116 128.704 258.303 128.653C258.685 128.571 259.08 128.659 259.408 128.901C259.735 129.143 259.97 129.521 260.065 129.956L261.498 136.333C261.559 136.627 261.551 136.936 261.477 137.226C261.403 137.516 261.264 137.779 261.075 137.989C260.901 138.164 260.69 138.285 260.464 138.341V138.341Z" fill="#FFE399"/>
<path d="M272.445 137.136C271.996 136.944 271.641 136.6 271.452 136.173C271.264 135.745 271.254 135.265 271.428 134.832L274.241 128.596C274.332 128.383 274.468 128.191 274.641 128.029C274.813 127.868 275.02 127.742 275.247 127.658C275.474 127.573 275.716 127.533 275.96 127.54C276.204 127.547 276.443 127.601 276.664 127.697C277.12 127.889 277.481 128.238 277.67 128.672C277.86 129.106 277.864 129.592 277.682 130.028L274.899 136.237C274.796 136.469 274.643 136.68 274.45 136.855C274.181 137.079 273.848 137.225 273.492 137.275C273.136 137.325 272.772 137.276 272.445 137.136V137.136Z" fill="#FFE399"/>
<path d="M245.107 164.731L238.719 166.514C238.284 166.616 237.829 166.537 237.445 166.294C237.061 166.05 236.775 165.659 236.643 165.198C236.582 164.97 236.563 164.73 236.589 164.494C236.614 164.257 236.683 164.029 236.791 163.822C236.899 163.615 237.044 163.434 237.218 163.288C237.391 163.143 237.59 163.037 237.802 162.976L244.191 161.193C244.627 161.076 245.088 161.148 245.475 161.394C245.863 161.64 246.147 162.04 246.267 162.509C246.363 162.831 246.37 163.176 246.289 163.503C246.207 163.83 246.04 164.124 245.808 164.35C245.612 164.545 245.369 164.677 245.107 164.731V164.731Z" fill="#FFE399"/>
<path d="M288 233H344V224H288V233Z" fill="#FFC733"/>
<path d="M0 233H288V224H0V233Z" fill="#FFD566"/>
<defs>
<linearGradient id="paint0_linear" x1="88" y1="167" x2="172.5" y2="231.5" gradientUnits="userSpaceOnUse">
<stop stop-color="#A22C01"/>
<stop offset="0.169124" stop-color="#A62D01"/>
<stop offset="0.486792" stop-color="#CA3701"/>
<stop offset="0.84" stop-color="#D83B01"/>
</linearGradient>
<radialGradient id="paint1_radial" cx="0" cy="0" r="1" gradientUnits="userSpaceOnUse" gradientTransform="translate(72.5006 176.5) rotate(-20.6378) scale(41.1394 60.0451)">
<stop offset="0.15625" stop-color="#A22C01"/>
<stop offset="1" stop-color="#D83B01"/>
</radialGradient>
<linearGradient id="paint2_linear" x1="95.3666" y1="93.9686" x2="109.324" y2="68.7821" gradientUnits="userSpaceOnUse">
<stop stop-color="#BF8F67"/>
<stop offset="0.802083" stop-color="#AA7D5F"/>
</linearGradient>
<radialGradient id="paint3_radial" cx="0" cy="0" r="1" gradientUnits="userSpaceOnUse" gradientTransform="translate(127.675 64.6652) rotate(48.8242) scale(25.9387 16.7867)">
<stop stop-color="#9B643D"/>
<stop offset="0.260417" stop-color="#A46E47" stop-opacity="0.76"/>
<stop offset="0.760417" stop-color="#BA8961" stop-opacity="0.14"/>
<stop offset="1" stop-color="#BF8F67" stop-opacity="0"/>
</radialGradient>
<linearGradient id="paint4_linear" x1="241751" y1="133712" x2="244644" y2="130824" gradientUnits="userSpaceOnUse">
<stop stop-color="#AEB9C1"/>
<stop offset="1" stop-color="#B3AFAB"/>
</linearGradient>
</defs>
</svg>
